<svg xmlns="http://www.w3.org/2000/svg" version="1.1" xmlns:xlink="http://www.w3.org/1999/xlink" xmlns:svgjs="http://svgjs.dev/svgjs" width="100%" height="100%" viewBox="0 0 1000 600"><rect width="1000" height="600" x="0" y="0" fill="#326273"/><g><circle r="166.66666666666666" cx="357.9946085611979" cy="380.2168460941774" fill="#5c9ead" transform="matrix(0.6533283752401732,0,0,0.6533283752401731,0,51.59353044355903)"/><path d="M353.7265319707107 305.24217810042927L353.7265319707107 305.24217810042927Q363.1203696993799 305.24217810042927 373.7394906100494 305.8548196914294Q384.3177687479856 306.42661850969625 394.7326757949884 307.3251595098298Q405.18842561472457 308.18285773723005 414.0104645251269 309.6531975556304L414.0104645251269 309.6531975556304L411.96832588845973 327.9099169674354Q398.4085253409894 327.2972753764352 384.7670392480524 326.8480048763684Q371.08471038238207 326.43957714903496 357.5657526076451 326.43957714903496L357.5657526076451 326.43957714903496Q344.3326942420415 326.11283496716817 336.6542529681728 327.0113759673018Q329.0166544670374 327.9099169674354 325.62670433016984 331.7082948316364Q322.2775969660356 335.54751546857074 322.2775969660356 344.6554537881065L322.2775969660356 344.6554537881065Q322.2775969660356 355.8463735170429 327.546314648637 359.3588519721105Q332.85587510397175 362.87133042717807 343.14825383277457 365.2402112457121L343.14825383277457 365.2402112457121L384.8895675662524 374.63404897438124Q401.96184656879035 378.759169020449 410.0487155699925 387.29530852171797Q418.1355845711947 395.83144802298693 418.1355845711947 414.04732466205854L418.1355845711947 414.04732466205854Q418.1355845711947 431.6914024828632 411.5190553883929 440.5134413932656Q404.90252620559113 449.335480303668 391.3835684308542 452.2761599404688Q377.8237678833839 455.2168395772696 356.9531110166449 455.2168395772696L356.9531110166449 455.2168395772696Q349.31551251550957 455.2168395772696 334.1628438314388 454.64504075900277Q319.01017514736805 454.0323991680026 300.7942985082965 451.0917195312018L300.7942985082965 451.0917195312018L302.5505377358303 432.87584289213027Q309.6163374186989 433.16174230126364 317.5398353289677 433.61101280133045Q325.5041760119698 434.0602833013972 334.1628438314388 434.0602833013972Q342.86235442364114 434.0602833013972 351.9702927431769 434.0602833013972L351.9702927431769 434.0602833013972Q368.14403074558123 434.0602833013972 377.251969065117 432.58994348299683Q386.35990738465284 431.11960366459647 390.19912802158717 426.8311125275953Q393.9975058857882 422.5834641633275 393.9975058857882 414.04732466205854L393.9975058857882 414.04732466205854Q393.9975058857882 403.46904652412235 387.8302472030532 399.9565680690547Q381.6629885203182 396.40324684125375 371.37060979151545 394.07520879545314L371.37060979151545 394.07520879545314L330.2010948763044 384.6405282940506Q318.43837632910123 381.6998486572498 311.3725766462327 376.83955870198184Q304.3067769633641 372.0201115194472 301.0801979174299 364.2191419273785Q297.8536188714957 356.4181723353097 297.8536188714957 344.6554537881065L297.8536188714957 344.6554537881065Q297.8536188714957 327.9099169674354 303.7349781450973 319.3737774661664Q309.6163374186989 310.83763796489745 321.9508547841688 307.8969583280966Q334.3262149223722 304.95627869129584 353.7265319707107 305.24217810042927Z " fill="#eeeeee" transform="matrix(0.6533283752401732,0,0,0.6533283752401731,0,51.59353044355903)"/><path d="M648.025814334514 347.55979967405045L648.025814334514 347.55979967405045Q654.7562081234786 347.55979967405045 662.3644793631778 347.9987383994177Q669.9434880211858 348.4084145430938 677.4054463524292 349.0521913402991Q684.8966672653637 349.6667055558133 691.2173849106523 350.7201584966947L691.2173849106523 350.7201584966947L689.7542558260948 363.800532512639Q680.0390787046327 363.3615937872718 670.2653764197885 363.0397053886691Q660.462411553253 362.74707957175764 650.7764970134822 362.74707957175764L650.7764970134822 362.74707957175764Q641.2954205455494 362.5129789182284 635.794055187613 363.1567557154337Q630.3219524113679 363.800532512639 627.8931581310023 366.521952609916Q625.493626432328 369.2726352888842 625.493626432328 375.79819100601077L625.493626432328 375.79819100601077Q625.493626432328 383.816138389386 629.2684994704864 386.332720414825Q633.072635090336 388.84930244026395 640.446805676506 390.5465321783507L640.446805676506 390.5465321783507L670.3531641648619 397.2769259673153Q682.5849233117629 400.2324467181216 688.3789144866107 406.34832629157205Q694.1729056614586 412.4642058650225 694.1729056614586 425.5153172992757L694.1729056614586 425.5153172992757Q694.1729056614586 438.1567525898528 689.4323674274922 444.4774702351413Q684.6918291935257 450.79818788042985 675.0059146537549 452.90509376219273Q665.2907375322928 455.01199964395556 650.3375582881149 455.01199964395556L650.3375582881149 455.01199964395556Q644.8654555118696 455.01199964395556 634.0090377044528 454.6023235002794Q623.152619897036 454.1633847749122 610.1015084627827 452.0564788931493L610.1015084627827 452.0564788931493L611.3597994755023 439.00536745889616Q616.4222261080713 439.2102055307342 622.0991669561545 439.5320939293369Q627.8053703859289 439.8539823279395 634.0090377044528 439.8539823279395Q640.2419676046679 439.8539823279395 646.7675233217944 439.8539823279395L646.7675233217944 439.8539823279395Q658.3555056714902 439.8539823279395 664.8810613886167 438.80052938705813Q671.4066171057433 437.74707644617666 674.1572997847115 434.6745053686059Q676.8787198819884 431.6311968727262 676.8787198819884 425.5153172992757L676.8787198819884 425.5153172992757Q676.8787198819884 417.93630864126766 672.4600700466248 415.4197266158287Q668.0414202112611 412.8738820086986 660.667249625091 411.20591485230307L660.667249625091 411.20591485230307L631.1705672804112 404.44625848164725Q622.7429437533599 402.3393525998844 617.6805171207908 398.85710537863747Q612.6180904882217 395.4041207390817 610.3063465346208 389.8149676360719Q607.99460258102 384.2258145330622 607.99460258102 375.79819100601077L607.99460258102 375.79819100601077Q607.99460258102 363.800532512639 612.2084143445456 357.68465293918854Q616.4222261080713 351.568773365738 625.2595257787988 349.4618674839752Q634.1260880312175 347.35496160221237 648.025814334514 347.55979967405045ZM764.7542527005138 347.55979967405045L764.7542527005138 347.55979967405045Q769.3777406077156 347.55979967405045 775.08394403749 347.9987383994177Q780.7608848855732 348.4084145430938 786.7597141322591 349.4618674839752Q792.758543378945 350.5153204248566 797.8209700115141 352.4173882347814L797.8209700115141 352.4173882347814L795.5092260579132 364.0053705844771Q788.5447316154193 363.3615937872718 780.8779352123378 363.0397053886691Q773.1818762275652 362.74707957175764 767.7097734513201 362.74707957175764L767.7097734513201 362.74707957175764Q755.478014304419 362.74707957175764 748.3086817900872 366.1122764662399Q741.1393492757553 369.47747336072223 737.978990453111 377.9050968877736Q734.8186316304667 386.332720414825 734.8186316304667 401.28589965900295L734.8186316304667 401.28589965900295Q734.8186316304667 416.23907890318094 737.978990453111 424.78375275699693Q741.1393492757553 433.3284266108129 748.3086817900872 436.69362350529525Q755.478014304419 440.0588203997776 767.7097734513201 440.0588203997776L767.7097734513201 440.0588203997776Q770.8701322739644 440.0588203997776 775.9032963248422 439.8539823279395Q780.9657229574113 439.64914425610147 786.7597141322591 439.2102055307342Q792.553705307107 438.80052938705813 797.8209700115141 437.9519145180147L797.8209700115141 437.9519145180147L799.7230378214389 449.94957301138646Q791.9391910915928 452.70025569035465 782.7507404405715 453.9585467030741Q773.5915523712414 455.2168377157936 764.5494146286758 455.2168377157936L764.5494146286758 455.2168377157936Q746.8455527055296 455.2168377157936 736.1061852248773 449.94957301138646Q725.3375551625339 444.68230830697934 720.5970169285675 432.8894878854457Q715.8564786946012 421.09666746391196 715.8564786946012 401.28589965900295L715.8564786946012 401.28589965900295Q715.8564786946012 381.475131854094 720.7140672553321 369.6823114325603Q725.5716558160632 357.88949101102656 736.3110232967155 352.7392766333841Q747.0503907773677 347.55979967405045 764.7542527005138 347.55979967405045ZM886.3110170455535 347.55979967405045L886.3110170455535 347.55979967405045Q914.1397322338379 347.55979967405045 914.1397322338379 375.79819100601077L914.1397322338379 375.79819100601077L914.1397322338379 452.70025569035465L895.9969315853244 452.70025569035465L895.9969315853244 380.86061763857987Q895.9969315853244 370.53092630160364 892.7487850176068 366.63900293668064Q889.4713758681978 362.74707957175764 881.4826910665137 362.74707957175764L881.4826910665137 362.74707957175764Q872.0016145985809 362.74707957175764 862.5205381306481 367.1657294071213Q853.0394616627153 371.5843792424851 839.959087646771 380.0120027695365L839.959087646771 380.0120027695365L839.1104727777276 367.1657294071213Q851.1373938527905 358.09432908286465 862.9302142743242 352.8270643784575Q874.7230346958579 347.55979967405045 886.3110170455535 347.55979967405045ZM823.9524554617116 305.2168439669555L841.8611554566958 305.2168439669555L842.0659935285338 345.89183251765485Q842.0659935285338 352.8270643784575 841.5392670580931 358.94294395190803Q841.0125405876524 365.0588235253585 839.959087646771 369.6823114325603L839.959087646771 369.6823114325603L841.8611554566958 372.84267025520455L841.8611554566958 452.70025569035465L823.9524554617116 452.70025569035465L823.9524554617116 305.2168439669555ZM994.8166699563402 347.55979967405045L994.8166699563402 347.55979967405045Q1006.1998142341978 347.55979967405045 1014.1007112908084 350.63237075162124Q1022.0016083474192 353.6756792475009 1026.0105820391068 360.84501176183284Q1030.0195557307943 368.0143442761647 1030.0195557307943 380.4216789132126L1030.0195557307943 380.4216789132126L1030.0195557307943 452.70025569035465L1015.8857287739686 452.70025569035465L1013.1643086766916 430.3729058600067L1011.876755082281 428.0611619064058L1011.876755082281 380.4216789132126Q1011.876755082281 370.9406024452798 1007.5751555736819 366.84384100851867Q1003.2442934833915 362.74707957175764 991.0417969181816 362.74707957175764L991.0417969181816 362.74707957175764Q983.0238495348063 362.74707957175764 970.9091407146701 363.5664318591098Q958.7944318945337 364.4150467281532 947.001611473 365.4684996690346L947.001611473 365.4684996690346L945.3043817349132 352.2125501629434Q952.4737142492452 350.9249965685327 961.018388103061 349.8715436276513Q969.533799375186 348.8180906867699 978.4003616276046 348.20357647125576Q987.237661298332 347.55979967405045 994.8166699563402 347.55979967405045ZM969.1241232315099 389.49307923746926L1021.5919322037429 389.49307923746926L1021.3578315502137 402.9831293970897L972.2844820541542 403.18796746892775Q964.9103114679841 403.39280554076583 961.954790717178 407.0798908338508Q958.9992699663718 410.7669761269358 958.9992699663718 417.29253184406235L958.9992699663718 417.29253184406235L958.9992699663718 423.8473501428801Q958.9992699663718 431.83603494456423 962.8034055862213 435.5231202376492Q966.5782786243798 439.2102055307342 975.0059021514311 439.2102055307342L975.0059021514311 439.2102055307342Q980.9169436530436 439.2102055307342 988.4081645659782 437.0155119038979Q995.8701228972216 434.79155569537045 1003.4491315552297 430.1680677881687Q1011.0574027949287 425.5153172992757 1017.3781204402172 418.3459847849438L1017.3781204402172 418.3459847849438L1017.3781204402172 431.6311968727262Q1015.0371139049251 434.58671762353237 1010.735514396326 438.4786409884554Q1006.4046523060357 442.3705643533785 1000.4058230593498 446.0576496464634Q994.4069938126639 449.74473493954844 987.1206109715675 452.173529219914Q979.8634907121622 454.6023235002794 971.4358671851107 454.6023235002794L971.4358671851107 454.6023235002794Q962.3644668608541 454.6023235002794 955.4292350000513 451.32491435087053Q948.4647405575575 448.07676778315283 944.5728171926345 441.6389998110997Q940.6808938277114 435.20123183904656 940.6808938277114 425.954256024643L940.6808938277114 425.954256024643L940.6808938277114 414.7759498186234Q940.6808938277114 402.77829132525164 948.1428521589548 396.13568528136045Q955.6340730718895 389.49307923746926 969.1241232315099 389.49307923746926L969.1241232315099 389.49307923746926ZM1117.2220491704234 347.55979967405045L1117.2220491704234 347.55979967405045Q1136.184202106289 347.55979967405045 1145.2556024305454 359.8793465660248Q1154.3270027548024 372.2281560396904 1154.3270027548024 401.0810615871649L1154.3270027548024 401.0810615871649Q1154.3270027548024 414.3662736749473 1152.1030465462748 424.4618643583943Q1149.8790903377474 434.58671762353237 1144.728875960105 441.43416173926164Q1139.5786615824622 448.2816058549909 1130.8291496568083 451.7638530762378Q1122.0796377311542 455.2168377157936 1108.7944256433718 455.2168377157936L1108.7944256433718 455.2168377157936Q1103.5271609389647 455.2168377157936 1097.4405439472055 454.8071615721175Q1091.3246643737548 454.39748542844137 1085.0039467284664 453.4318202326334Q1078.6832290831778 452.49541761851657 1072.684399836492 451.1200762790325Q1066.656308008115 449.74473493954844 1061.623143957237 447.84266712962363L1061.623143957237 447.84266712962363L1075.9325464042095 435.64017056441384Q1081.638749833984 437.3081377208094 1087.1986403553028 438.36159066169085Q1092.7877934583125 439.41504360257227 1098.1721084894843 439.7369320011749Q1103.5271609389647 440.0588203997776 1108.3847494996958 440.0588203997776L1108.3847494996958 440.0588203997776Q1118.2755021113046 439.8539823279395 1124.3035939396816 436.254684779928Q1130.3024231863674 432.68464981360756 1133.0238432836445 424.1399759597916Q1135.7745259626126 415.6245646876668 1135.7745259626126 401.0810615871649L1135.7745259626126 401.0810615871649Q1135.7745259626126 386.9764972120303 1133.66762008085 378.6366614300524Q1131.5607141990872 370.3260882297656 1126.1763991679154 366.7267906817541Q1120.8213467184346 363.1567557154337 1110.9013315251345 363.1567557154337L1110.9013315251345 363.1567557154337Q1102.4737079980832 363.1567557154337 1094.8946993400755 367.69245587756205Q1087.3156906820673 372.2281560396904 1077.4249380704582 380.0120027695365L1077.4249380704582 380.0120027695365L1076.1373844760478 368.0143442761647Q1082.4581021213362 361.2546879055089 1089.1007081652274 356.7189877433806Q1095.7433142091186 352.2125501629434 1102.9126467234505 349.8715436276513Q1110.0819792377824 347.55979967405045 1117.2220491704234 347.55979967405045ZM1061.623143957237 305.2168439669555L1079.5318439522212 305.2168439669555L1079.5318439522212 343.5508259823628Q1079.5318439522212 350.1056442811805 1079.2099555536183 355.5777470574257Q1078.888067155016 361.04984983367086 1077.6297761422966 366.7267906817541L1077.6297761422966 366.7267906817541L1079.297743298692 369.6823114325603L1079.5318439522212 448.69128199866697L1061.623143957237 447.84266712962363L1061.623143957237 305.2168439669555ZM1224.264572996652 347.55979967405045L1224.264572996652 347.55979967405045Q1247.4405376960435 347.55979967405045 1257.8580167780933 355.9874232011018Q1268.304758441834 364.4150467281532 1268.304758441834 381.0654557104179L1268.304758441834 381.0654557104179Q1268.509596513672 394.7603439418764 1262.5985550120595 402.456402926649Q1256.7167760921384 410.15246191142165 1243.8705027297233 410.15246191142165L1243.8705027297233 410.15246191142165L1184.02852317132 410.15246191142165L1184.02852317132 396.2234730264339L1239.2177522408301 396.2234730264339Q1246.1822466833241 396.2234730264339 1248.289152565087 391.4829347924675Q1250.3960584468496 386.7423965585011 1250.3960584468496 381.0654557104179L1250.3960584468496 381.0654557104179Q1250.1912203750117 371.17470309880895 1244.4850169452375 366.9608913352833Q1238.8080760971543 362.74707957175764 1225.1131878656956 362.74707957175764L1225.1131878656956 362.74707957175764Q1213.9348816596762 362.74707957175764 1207.526376269314 365.99522613947534Q1201.0886082972609 369.2726352888842 1198.4549759450574 377.3783704173329Q1195.8213435928537 385.48410554578163 1195.8213435928537 400.0276086462835L1195.8213435928537 400.0276086462835Q1195.8213435928537 416.47317955671014 1199.0987527422626 425.1056411555996Q1202.3468993099805 433.73810275448903 1209.5162318243124 436.89846157713333Q1216.6855643386443 440.0588203997776 1228.478384760178 440.0588203997776L1228.478384760178 440.0588203997776Q1236.7011702153914 440.0588203997776 1246.504135081927 439.3272558574988Q1256.277837366771 438.59569131522005 1264.0909466783082 437.54223837433864L1264.0909466783082 437.54223837433864L1265.9930144882333 449.5398968677104Q1261.1354259275022 451.44196467763516 1254.0831437399347 452.70025569035465Q1247.0308615523677 453.9585467030741 1239.539640639433 454.6023235002794Q1232.0484197264982 455.2168377157936 1226.166640806577 455.2168377157936L1226.166640806577 455.2168377157936Q1208.462778883431 455.2168377157936 1197.7234114027788 449.861785266313Q1186.9840439221264 444.4774702351413 1182.0094050346306 432.567599486843Q1177.064028728826 420.68699132023585 1177.064028728826 401.0810615871649L1177.064028728826 401.0810615871649Q1177.064028728826 380.86061763857987 1182.0094050346306 369.1555849621196Q1186.9840439221264 357.4798148673505 1197.401523004176 352.50517597985487Q1207.8190020862257 347.55979967405045 1224.264572996652 347.55979967405045ZM1295.489696832913 305.2168439669555L1313.3983968278972 305.2168439669555L1313.1642961743678 424.4618643583943Q1313.1642961743678 431.22152072905004 1316.851381467453 434.6745053686059Q1320.5384667605376 438.1567525898528 1327.2981231311937 438.1567525898528L1327.2981231311937 438.1567525898528L1337.1888757428023 438.1567525898528L1339.2957816245653 451.85164082131126Q1337.3937138146407 452.70025569035465 1333.940729175085 453.34403248755996Q1330.4584819538381 453.9585467030741 1326.771396660753 454.2804351016768Q1323.0843113676679 454.6023235002794 1320.5384667605376 454.6023235002794L1320.5384667605376 454.6023235002794Q1309.1845850643713 454.6023235002794 1302.3371409486422 447.84266712962363Q1295.489696832913 441.112273340659 1295.489696832913 428.4708380500819L1295.489696832913 428.4708380500819L1295.489696832913 305.2168439669555Z " fill="#ffffff" transform="matrix(0.6533283752401732,0,0,0.6533283752401731,0,51.59353044355903)"/></g></svg>